<?xml version="1.0" encoding="UTF-8"?>
<svg xmlns="http://www.w3.org/2000/svg" viewBox="0 0 600 400" width="600" height="400">
  <!-- Eel outline based on the reference image -->
  <path d="M 80 200 
           C 85 180, 95 160, 110 150
           C 125 140, 145 135, 165 140
           C 185 145, 200 155, 220 170
           C 240 185, 260 205, 285 225
           C 310 245, 335 265, 365 280
           C 395 295, 425 305, 455 310
           C 485 315, 515 315, 540 310
           C 560 305, 575 295, 585 280
           C 590 270, 592 260, 590 250
           C 588 240, 583 232, 575 227
           C 567 222, 557 220, 547 221
           C 537 222, 527 226, 518 232
           C 509 238, 501 246, 495 255
           C 489 264, 485 274, 483 284
           C 481 294, 481 304, 483 314
           C 485 324, 489 333, 495 341
           C 501 349, 509 356, 518 361
           C 527 366, 537 369, 547 370
           C 557 371, 567 370, 575 367
           C 583 364, 588 359, 590 352
           C 592 345, 590 337, 585 330
           C 575 315, 560 305, 540 300
           C 515 295, 485 295, 455 300
           C 425 305, 395 315, 365 330
           C 335 345, 310 365, 285 385
           C 260 405, 240 425, 220 440
           C 200 455, 185 465, 165 470
           C 145 475, 125 475, 110 470
           C 95 465, 85 455, 80 440
           C 75 425, 75 405, 80 390
           C 85 375, 95 360, 110 350
           C 125 340, 145 335, 165 340
           C 185 345, 200 355, 220 370
           C 240 385, 260 405, 285 425
           L 80 200 Z" 
        fill="none" stroke="black" stroke-width="2"/>
  
  <!-- Centerline for processing -->
  <polyline points="80,200 110,150 165,140 220,170 285,225 365,280 455,310 540,310 585,280 590,250 575,227 547,221 518,232 495,255 483,284 483,314 495,341 518,361 547,370 575,367 590,352 585,330 540,300 455,300 365,330 285,385 220,440 165,470 110,470 80,440"
            fill="none" stroke="red" stroke-width="1" opacity="0.5"/>
</svg>
